<svg width="10" height="8" viewBox="0 0 10 8" fill="none" xmlns="http://www.w3.org/2000/svg">
<path d="M7.86437 4.78034C7.86437 4.76898 7.86437 4.75762 7.85869 4.74626L4.5932 2.05436L1.3277 4.74626C1.3277 4.75762 1.32202 4.76898 1.32202 4.78034V7.50632C1.32202 7.70509 1.48671 7.86978 1.68548 7.86978H3.86627V5.689H5.32012V7.86978H7.50091C7.69968 7.86978 7.86437 7.70509 7.86437 7.50632V4.78034ZM9.13082 4.38848C9.19329 4.31465 9.18193 4.19539 9.1081 4.13292L7.86437 3.09932V0.782234C7.86437 0.680009 7.78486 0.600502 7.68264 0.600502H6.59225C6.49002 0.600502 6.41052 0.680009 6.41052 0.782234V1.88966L5.02481 0.731121C4.78629 0.532352 4.40011 0.532352 4.16158 0.731121L0.0782917 4.13292C0.00446307 4.19539 -0.00689519 4.31465 0.0555752 4.38848L0.407681 4.80873C0.436077 4.84281 0.48151 4.86552 0.526943 4.8712C0.578055 4.87688 0.623488 4.85985 0.663242 4.83145L4.5932 1.55459L8.52315 4.83145C8.55723 4.85985 8.59698 4.8712 8.64241 4.8712C8.64809 4.8712 8.65377 4.8712 8.65945 4.8712C8.70488 4.86552 8.75032 4.84281 8.77871 4.80873L9.13082 4.38848Z" fill="white"/>
</svg>
