<svg  width="136" height="36"   xmlns="http://www.w3.org/2000/svg" xmlns:xlink="http://www.w3.org/1999/xlink" viewBox="0 0 715.17 250"><defs><style>.cls-1{fill:url(#linear-gradient);}.cls-2{fill:#fff;}.cls-3{fill:url(#linear-gradient-2);}</style><linearGradient id="linear-gradient" x1="14.65" y1="235.35" x2="235.35" y2="14.65" gradientUnits="userSpaceOnUse"><stop offset="0" stop-color="#f5286e"/><stop offset="0.66" stop-color="#fa5950"/><stop offset="1" stop-color="#fc6d43"/></linearGradient><linearGradient id="linear-gradient-2" x1="302.98" y1="154.57" x2="715.17" y2="154.57" xlink:href="#linear-gradient"/></defs><g id="Layer_2" data-name="Layer 2"><g id="UPay"><rect class="cls-1" width="250" height="250" rx="50.02"/><path class="cls-2" d="M65.46,133.92V60.58h35v73.34q0,10.34,7.33,16a28,28,0,0,0,17.67,5.67,28,28,0,0,0,17.67-5.67q7.32-5.67,7.33-16V60.58h35v73.34q0,26-17.66,40.5t-42.34,14.5q-24.67,0-42.33-14.5T65.46,133.92Z"/><path class="cls-3" d="M431.84,132.24c0,35.68-25.87,63.23-57.25,63.23-16,0-27.78-5.51-35.69-14.61V240H303V72.36H338.9V83.61C346.81,74.51,358.54,69,374.59,69,406,69,431.84,96.55,431.84,132.24Zm-35.93,0c0-18-12-29.22-28.5-29.22s-28.51,11.25-28.51,29.22,12,29.22,28.51,29.22S395.91,150.2,395.91,132.24Z"/><path class="cls-3" d="M575.06,72.36V192.12H539.13V180.86c-7.9,9.1-19.64,14.61-35.69,14.61-31.37,0-57.24-27.55-57.24-63.23S472.07,69,503.44,69c16.05,0,27.79,5.51,35.69,14.61V72.36Zm-35.93,59.88c0-18-12-29.22-28.5-29.22s-28.5,11.25-28.5,29.22,12,29.22,28.5,29.22S539.13,150.2,539.13,132.24Z"/><path class="cls-3" d="M715.17,72.36l-41,116.16C660.8,226.61,639.48,241.7,606,240V206.49c16.77,0,24.67-5.27,29.94-19.88L588.23,72.36h39.52l26.58,73.29,22.52-73.29Z"/></g></g></svg>